<mxfile host="app.diagrams.net" modified="2023-04-05T08:31:10.259Z" agent="Mozilla/5.0 (Windows NT 10.0; Win64; x64) AppleWebKit/537.36 (KHTML, like Gecko) Chrome/111.0.0.0 Safari/537.36" etag="Yr9lTsJbyeczRztrIN8q" version="21.1.4" type="device">
  <diagram id="afhy61-JGGwbrwMMAsw_" name="ページ1">
    <mxGraphModel dx="2530" dy="799" grid="1" gridSize="10" guides="1" tooltips="1" connect="1" arrows="1" fold="1" page="1" pageScale="1" pageWidth="827" pageHeight="1169" background="none" math="0" shadow="1">
      <root>
        <mxCell id="0" />
        <mxCell id="1" parent="0" />
        <mxCell id="42" value="domain" style="shape=folder;fontStyle=1;spacingTop=10;tabWidth=40;tabHeight=14;tabPosition=left;html=1;verticalAlign=top;fillColor=none;movable=0;resizable=0;rotatable=0;deletable=0;editable=0;locked=1;connectable=0;" parent="1" vertex="1">
          <mxGeometry x="720" y="80" width="280" height="360" as="geometry" />
        </mxCell>
        <mxCell id="43" value="presentation" style="shape=folder;fontStyle=1;spacingTop=10;tabWidth=40;tabHeight=14;tabPosition=left;html=1;verticalAlign=top;fillColor=none;movable=0;resizable=0;rotatable=0;deletable=0;editable=0;locked=1;connectable=0;" parent="1" vertex="1">
          <mxGeometry x="-80" y="80" width="440" height="360" as="geometry" />
        </mxCell>
        <mxCell id="44" value="application" style="shape=folder;fontStyle=1;spacingTop=10;tabWidth=40;tabHeight=14;tabPosition=left;html=1;verticalAlign=top;fillColor=none;movable=0;resizable=0;rotatable=0;deletable=0;editable=0;locked=1;connectable=0;" parent="1" vertex="1">
          <mxGeometry x="400" y="80" width="280" height="360" as="geometry" />
        </mxCell>
        <mxCell id="45" value="infrastructure" style="shape=folder;fontStyle=1;spacingTop=10;tabWidth=40;tabHeight=14;tabPosition=left;html=1;verticalAlign=top;fillColor=none;movable=1;resizable=1;rotatable=1;deletable=1;editable=1;locked=0;connectable=1;" parent="1" vertex="1">
          <mxGeometry x="1040" y="80" width="340" height="360" as="geometry" />
        </mxCell>
        <mxCell id="jZusu0xd1IwE_VUQQDEo-258" style="edgeStyle=orthogonalEdgeStyle;rounded=0;orthogonalLoop=1;jettySize=auto;html=1;entryX=0;entryY=0.5;entryDx=0;entryDy=0;" edge="1" parent="1" source="46" target="49">
          <mxGeometry relative="1" as="geometry" />
        </mxCell>
        <mxCell id="46" value="Controller" style="html=1;" parent="1" vertex="1">
          <mxGeometry x="210" y="240" width="110" height="50" as="geometry" />
        </mxCell>
        <mxCell id="jZusu0xd1IwE_VUQQDEo-252" style="edgeStyle=orthogonalEdgeStyle;rounded=0;orthogonalLoop=1;jettySize=auto;html=1;entryX=0;entryY=0.5;entryDx=0;entryDy=0;exitX=1;exitY=0.5;exitDx=0;exitDy=0;" edge="1" parent="1" source="49" target="63">
          <mxGeometry relative="1" as="geometry">
            <Array as="points">
              <mxPoint x="650" y="165" />
              <mxPoint x="650" y="165" />
            </Array>
          </mxGeometry>
        </mxCell>
        <mxCell id="jZusu0xd1IwE_VUQQDEo-263" style="edgeStyle=orthogonalEdgeStyle;rounded=0;orthogonalLoop=1;jettySize=auto;html=1;entryX=0.5;entryY=0;entryDx=0;entryDy=0;" edge="1" parent="1" source="49" target="61">
          <mxGeometry relative="1" as="geometry">
            <Array as="points">
              <mxPoint x="770" y="180" />
              <mxPoint x="770" y="280" />
              <mxPoint x="855" y="280" />
            </Array>
          </mxGeometry>
        </mxCell>
        <mxCell id="jZusu0xd1IwE_VUQQDEo-268" style="edgeStyle=orthogonalEdgeStyle;rounded=0;orthogonalLoop=1;jettySize=auto;html=1;entryX=0.5;entryY=0;entryDx=0;entryDy=0;" edge="1" parent="1" source="49" target="jZusu0xd1IwE_VUQQDEo-254">
          <mxGeometry relative="1" as="geometry">
            <Array as="points">
              <mxPoint x="605" y="180" />
            </Array>
          </mxGeometry>
        </mxCell>
        <mxCell id="jZusu0xd1IwE_VUQQDEo-270" style="edgeStyle=orthogonalEdgeStyle;rounded=0;orthogonalLoop=1;jettySize=auto;html=1;entryX=0.5;entryY=0;entryDx=0;entryDy=0;" edge="1" parent="1" source="49" target="jZusu0xd1IwE_VUQQDEo-253">
          <mxGeometry relative="1" as="geometry" />
        </mxCell>
        <mxCell id="49" value="Usecase" style="html=1;" parent="1" vertex="1">
          <mxGeometry x="460" y="140" width="110" height="50" as="geometry" />
        </mxCell>
        <mxCell id="jZusu0xd1IwE_VUQQDEo-241" style="edgeStyle=orthogonalEdgeStyle;rounded=0;orthogonalLoop=1;jettySize=auto;html=1;" edge="1" parent="1" source="52" target="63">
          <mxGeometry relative="1" as="geometry" />
        </mxCell>
        <mxCell id="jZusu0xd1IwE_VUQQDEo-242" style="edgeStyle=orthogonalEdgeStyle;rounded=0;orthogonalLoop=1;jettySize=auto;html=1;entryX=1;entryY=0.5;entryDx=0;entryDy=0;exitX=0.5;exitY=1;exitDx=0;exitDy=0;" edge="1" parent="1" source="52" target="61">
          <mxGeometry relative="1" as="geometry" />
        </mxCell>
        <mxCell id="jZusu0xd1IwE_VUQQDEo-246" style="edgeStyle=orthogonalEdgeStyle;rounded=0;orthogonalLoop=1;jettySize=auto;html=1;" edge="1" parent="1" source="52" target="jZusu0xd1IwE_VUQQDEo-245">
          <mxGeometry relative="1" as="geometry" />
        </mxCell>
        <mxCell id="52" value="Datasource" style="html=1;" parent="1" vertex="1">
          <mxGeometry x="1090" y="140" width="110" height="50" as="geometry" />
        </mxCell>
        <mxCell id="61" value="Model" style="html=1;" parent="1" vertex="1">
          <mxGeometry x="800" y="330" width="110" height="50" as="geometry" />
        </mxCell>
        <mxCell id="63" value="Repository" style="html=1;" parent="1" vertex="1">
          <mxGeometry x="800" y="140" width="110" height="50" as="geometry" />
        </mxCell>
        <mxCell id="221" value="DB" style="rounded=0;whiteSpace=wrap;html=1;" parent="1" vertex="1">
          <mxGeometry x="1440" y="140" width="80" height="20" as="geometry" />
        </mxCell>
        <mxCell id="jZusu0xd1IwE_VUQQDEo-228" value="View" style="html=1;" vertex="1" parent="1">
          <mxGeometry x="-50" y="240" width="110" height="50" as="geometry" />
        </mxCell>
        <mxCell id="jZusu0xd1IwE_VUQQDEo-248" style="edgeStyle=orthogonalEdgeStyle;rounded=0;orthogonalLoop=1;jettySize=auto;html=1;entryX=0.5;entryY=0;entryDx=0;entryDy=0;" edge="1" parent="1" source="jZusu0xd1IwE_VUQQDEo-245" target="jZusu0xd1IwE_VUQQDEo-247">
          <mxGeometry relative="1" as="geometry" />
        </mxCell>
        <mxCell id="jZusu0xd1IwE_VUQQDEo-245" value="Mapper" style="html=1;" vertex="1" parent="1">
          <mxGeometry x="1240" y="140" width="110" height="50" as="geometry" />
        </mxCell>
        <mxCell id="jZusu0xd1IwE_VUQQDEo-249" style="edgeStyle=orthogonalEdgeStyle;rounded=0;orthogonalLoop=1;jettySize=auto;html=1;entryX=0;entryY=0.5;entryDx=0;entryDy=0;" edge="1" parent="1" source="jZusu0xd1IwE_VUQQDEo-247" target="jZusu0xd1IwE_VUQQDEo-250">
          <mxGeometry relative="1" as="geometry">
            <mxPoint x="1499.9" y="265.03999999999996" as="targetPoint" />
          </mxGeometry>
        </mxCell>
        <mxCell id="jZusu0xd1IwE_VUQQDEo-247" value="SQL" style="html=1;" vertex="1" parent="1">
          <mxGeometry x="1240" y="240" width="110" height="50" as="geometry" />
        </mxCell>
        <mxCell id="jZusu0xd1IwE_VUQQDEo-250" value="" style="shape=datastore;whiteSpace=wrap;html=1;" vertex="1" parent="1">
          <mxGeometry x="1440" y="200" width="130" height="130" as="geometry" />
        </mxCell>
        <mxCell id="jZusu0xd1IwE_VUQQDEo-260" style="edgeStyle=orthogonalEdgeStyle;rounded=0;orthogonalLoop=1;jettySize=auto;html=1;" edge="1" parent="1" source="jZusu0xd1IwE_VUQQDEo-253" target="61">
          <mxGeometry relative="1" as="geometry" />
        </mxCell>
        <mxCell id="jZusu0xd1IwE_VUQQDEo-253" value="DTO" style="html=1;" vertex="1" parent="1">
          <mxGeometry x="460" y="330" width="110" height="50" as="geometry" />
        </mxCell>
        <mxCell id="jZusu0xd1IwE_VUQQDEo-254" value="Form" style="html=1;" vertex="1" parent="1">
          <mxGeometry x="550" y="235" width="110" height="50" as="geometry" />
        </mxCell>
        <mxCell id="jZusu0xd1IwE_VUQQDEo-265" style="edgeStyle=orthogonalEdgeStyle;rounded=0;orthogonalLoop=1;jettySize=auto;html=1;entryX=0.5;entryY=0;entryDx=0;entryDy=0;" edge="1" parent="1" source="jZusu0xd1IwE_VUQQDEo-255" target="46">
          <mxGeometry relative="1" as="geometry" />
        </mxCell>
        <mxCell id="jZusu0xd1IwE_VUQQDEo-255" value="Request" style="html=1;" vertex="1" parent="1">
          <mxGeometry x="-10" y="180" width="110" height="50" as="geometry" />
        </mxCell>
      </root>
    </mxGraphModel>
  </diagram>
</mxfile>
